Coordinates
version=1
nRows=10
nColumns=27
inDegrees=yes

Units are S.I. units (second, meters, Newtons, ...)
If the header above contains a line with 'inDegrees', this indicates whether rotational values are in degrees (yes) or radians (no).

endheader
time	pelvis_rotation	pelvis_tilt	pelvis_list	pelvis_tx	pelvis_ty	pelvis_tz	hip_flexion_r	hip_adduction_r	hip_rotation_r	knee_angle_r	knee_rotation_r	knee_adduction_r	knee_angle_r_beta	ankle_angle_r	subtalar_angle_r	mtp_angle_r	hip_flexion_l	hip_adduction_l	hip_rotation_l	knee_angle_l	knee_rotation_l	knee_adduction_l	knee_angle_l_beta	ankle_angle_l	subtalar_angle_l	mtp_angle_l
      3.60000000	     -0.22876939	    -20.73865781	     -1.49102618	      0.04955721	      0.83331644	     -1.14858599	     32.05545207	    -22.74890594	    -27.89335263	     16.02829432	      0.00000000	      0.00000000	      0.27974651	     -8.24233543	      0.00000000	      0.00000000	     32.57801088	    -24.55767653	    -18.44907214	     11.46299702	      0.00000000	      0.00000000	      0.20006704	    -11.96644186	      0.00000000	      0.00000000
      3.60500000	     -0.43621578	    -21.17410209	     -1.19828806	      0.04807361	      0.83289749	     -1.14881192	     33.16905206	    -23.15380556	    -27.27181630	     16.75716971	      0.00000000	      0.00000000	      0.29246778	     -8.04034238	      0.00000000	      0.00000000	     33.09801081	    -24.38111223	    -18.72412695	     11.71767324	      0.00000000	      0.00000000	      0.20451198	    -11.94610189	      0.00000000	      0.00000000
      3.61000000	     -0.41806450	    -21.67565617	     -1.02845516	      0.04658614	      0.83248902	     -1.14891489	     34.15963752	    -23.47564860	    -27.00228547	     17.39946559	      0.00000000	      0.00000000	      0.30367796	     -7.88127811	      0.00000000	      0.00000000	     33.89071912	    -24.28373575	    -18.63057284	     12.07904177	      0.00000000	      0.00000000	      0.21081905	    -11.87675598	      0.00000000	      0.00000000
      3.61500000	     -0.74318792	    -22.63834961	     -0.62408312	      0.04393241	      0.83168245	     -1.14924057	     36.23627436	    -24.02656991	    -25.94150250	     18.59071629	      0.00000000	      0.00000000	      0.32446921	     -7.46698234	      0.00000000	      0.00000000	     35.14775483	    -24.10746920	    -18.95360156	     12.74257503	      0.00000000	      0.00000000	      0.22239989	    -11.62922130	      0.00000000	      0.00000000
      3.62000000	     -0.38080592	    -22.78096890	     -0.73612582	      0.04326258	      0.83151745	     -1.14905607	     36.31297520	    -24.07883069	    -26.40113180	     18.75697948	      0.00000000	      0.00000000	      0.32737105	     -7.55756122	      0.00000000	      0.00000000	     35.68985972	    -24.16586776	    -18.38715642	     12.93027055	      0.00000000	      0.00000000	      0.22567579	    -11.71542065	      0.00000000	      0.00000000
      3.62500000	     -1.00302047	    -23.86767983	      0.06325766	      0.04027289	      0.83050271	     -1.14970133	     39.02048387	    -24.92514684	    -24.60437148	     20.25913435	      0.00000000	      0.00000000	      0.35358860	     -7.04191103	      0.00000000	      0.00000000	     36.74937483	    -23.71618496	    -19.35225395	     13.46691457	      0.00000000	      0.00000000	      0.23504200	    -11.55016173	      0.00000000	      0.00000000
      3.63000000	     -1.13272817	    -24.41629819	      0.42229269	      0.03835133	      0.82982851	     -1.14993253	     40.39254843	    -25.37105202	    -23.88055672	     21.12802325	      0.00000000	      0.00000000	      0.36875357	     -6.83264431	      0.00000000	      0.00000000	     37.49684588	    -23.52463869	    -19.57251410	     13.85543546	      0.00000000	      0.00000000	      0.24182297	    -11.48168517	      0.00000000	      0.00000000
      3.63500000	     -0.94488913	    -24.69125776	      0.52407789	      0.03722798	      0.82943962	     -1.14991730	     40.95171823	    -25.62360486	    -23.91208322	     21.57037821	      0.00000000	      0.00000000	      0.37647412	     -6.86282737	      0.00000000	      0.00000000	     38.06468768	    -23.45319701	    -19.34323601	     14.07190981	      0.00000000	      0.00000000	      0.24560116	    -11.56750206	      0.00000000	      0.00000000
      3.64000000	     -1.12413814	    -25.38458437	      1.01829611	      0.03500206	      0.82859389	     -1.15023783	     42.67284329	    -26.17255907	    -22.94797251	     22.58517764	      0.00000000	      0.00000000	      0.39418571	     -6.61074883	      0.00000000	      0.00000000	     38.93076495	    -23.18400057	    -19.70244978	     14.50354103	      0.00000000	      0.00000000	      0.25313454	    -11.49492173	      0.00000000	      0.00000000
      3.64500000	     -1.09804903	    -26.10138569	      1.10639112	      0.03292584	      0.82784301	     -1.15017410	     44.00248325	    -26.37702547	    -22.55800061	     23.32116772	      0.00000000	      0.00000000	      0.40703116	     -6.41837638	      0.00000000	      0.00000000	     40.12389547	    -23.25083061	    -19.55851123	     15.08861978	      0.00000000	      0.00000000	      0.26334609	    -11.41298003	      0.00000000	      0.00000000
